<?xml version="1.0" encoding="UTF-8" standalone="no"?>
<!DOCTYPE svg PUBLIC "-//W3C//DTD SVG 1.1//EN"
 "http://www.w3.org/Graphics/SVG/1.1/DTD/svg11.dtd">
<!-- Generated by graphviz version 2.43.0 (0)
 -->
<!-- Title: G Pages: 1 -->
<svg width="2686pt" height="1749pt"
 viewBox="0.00 0.00 2686.20 1749.20" xmlns="http://www.w3.org/2000/svg" xmlns:xlink="http://www.w3.org/1999/xlink">
<g id="graph0" class="graph" transform="scale(1 1) rotate(0) translate(21.6 1727.6)">
<title>G</title>
<polygon fill="#111111" stroke="transparent" points="-21.6,21.6 -21.6,-1727.6 2664.6,-1727.6 2664.6,21.6 -21.6,21.6"/>
<!-- features/cucumber.js -->
<g id="node1" class="node">
<title>features/cucumber.js</title>
<path fill="none" stroke="#cfffac" d="M363.33,-95C363.33,-95 236.67,-95 236.67,-95 232.83,-95 229,-91.17 229,-87.33 229,-87.33 229,-79.67 229,-79.67 229,-75.83 232.83,-72 236.67,-72 236.67,-72 363.33,-72 363.33,-72 367.17,-72 371,-75.83 371,-79.67 371,-79.67 371,-87.33 371,-87.33 371,-91.17 367.17,-95 363.33,-95"/>
<text text-anchor="middle" x="300" y="-79.8" font-family="Arial" font-size="14.00" fill="#cfffac">features/cucumber.js</text>
</g>
<!-- features/steps/uc4_publish_project_steps.js -->
<g id="node2" class="node">
<title>features/steps/uc4_publish_project_steps.js</title>
<path fill="none" stroke="#cfffac" d="M431.33,-136C431.33,-136 168.67,-136 168.67,-136 164.83,-136 161,-132.17 161,-128.33 161,-128.33 161,-120.67 161,-120.67 161,-116.83 164.83,-113 168.67,-113 168.67,-113 431.33,-113 431.33,-113 435.17,-113 439,-116.83 439,-120.67 439,-120.67 439,-128.33 439,-128.33 439,-132.17 435.17,-136 431.33,-136"/>
<text text-anchor="middle" x="300" y="-120.8" font-family="Arial" font-size="14.00" fill="#cfffac">features/steps/uc4_publish_project_steps.js</text>
</g>
<!-- features/steps/uc5_applying_for_a_project_steps.js -->
<g id="node3" class="node">
<title>features/steps/uc5_applying_for_a_project_steps.js</title>
<path fill="none" stroke="#cfffac" d="M454.33,-177C454.33,-177 145.67,-177 145.67,-177 141.83,-177 138,-173.17 138,-169.33 138,-169.33 138,-161.67 138,-161.67 138,-157.83 141.83,-154 145.67,-154 145.67,-154 454.33,-154 454.33,-154 458.17,-154 462,-157.83 462,-161.67 462,-161.67 462,-169.33 462,-169.33 462,-173.17 458.17,-177 454.33,-177"/>
<text text-anchor="middle" x="300" y="-161.8" font-family="Arial" font-size="14.00" fill="#cfffac">features/steps/uc5_applying_for_a_project_steps.js</text>
</g>
<!-- laravel/cypress.config.js -->
<g id="node4" class="node">
<title>laravel/cypress.config.js</title>
<path fill="none" stroke="#cfffac" d="M372.33,-218C372.33,-218 227.67,-218 227.67,-218 223.83,-218 220,-214.17 220,-210.33 220,-210.33 220,-202.67 220,-202.67 220,-198.83 223.83,-195 227.67,-195 227.67,-195 372.33,-195 372.33,-195 376.17,-195 380,-198.83 380,-202.67 380,-202.67 380,-210.33 380,-210.33 380,-214.17 376.17,-218 372.33,-218"/>
<text text-anchor="middle" x="300" y="-202.8" font-family="Arial" font-size="14.00" fill="#cfffac">laravel/cypress.config.js</text>
</g>
<!-- laravel/cypress/support/commands.js -->
<g id="node5" class="node">
<title>laravel/cypress/support/commands.js</title>
<path fill="none" stroke="#cfffac" d="M970.83,-259C970.83,-259 746.17,-259 746.17,-259 742.33,-259 738.5,-255.17 738.5,-251.33 738.5,-251.33 738.5,-243.67 738.5,-243.67 738.5,-239.83 742.33,-236 746.17,-236 746.17,-236 970.83,-236 970.83,-236 974.67,-236 978.5,-239.83 978.5,-243.67 978.5,-243.67 978.5,-251.33 978.5,-251.33 978.5,-255.17 974.67,-259 970.83,-259"/>
<text text-anchor="middle" x="858.5" y="-243.8" font-family="Arial" font-size="14.00" fill="#cfffac">laravel/cypress/support/commands.js</text>
</g>
<!-- laravel/cypress/support/e2e.js -->
<g id="node6" class="node">
<title>laravel/cypress/support/e2e.js</title>
<path fill="none" stroke="#c6c5fe" d="M389.83,-259C389.83,-259 210.17,-259 210.17,-259 206.33,-259 202.5,-255.17 202.5,-251.33 202.5,-251.33 202.5,-243.67 202.5,-243.67 202.5,-239.83 206.33,-236 210.17,-236 210.17,-236 389.83,-236 389.83,-236 393.67,-236 397.5,-239.83 397.5,-243.67 397.5,-243.67 397.5,-251.33 397.5,-251.33 397.5,-255.17 393.67,-259 389.83,-259"/>
<text text-anchor="middle" x="300" y="-243.8" font-family="Arial" font-size="14.00" fill="#c6c5fe">laravel/cypress/support/e2e.js</text>
</g>
<!-- laravel/cypress/support/e2e.js&#45;&gt;laravel/cypress/support/commands.js -->
<g id="edge1" class="edge">
<title>laravel/cypress/support/e2e.js&#45;&gt;laravel/cypress/support/commands.js</title>
<path fill="none" stroke="#757575" d="M397.62,-247.5C489.1,-247.5 627.09,-247.5 728.05,-247.5"/>
<polygon fill="#757575" stroke="#757575" points="728.32,-251 738.32,-247.5 728.32,-244 728.32,-251"/>
</g>
<!-- laravel/eslint.config.js -->
<g id="node7" class="node">
<title>laravel/eslint.config.js</title>
<path fill="none" stroke="#cfffac" d="M364.83,-419C364.83,-419 235.17,-419 235.17,-419 231.33,-419 227.5,-415.17 227.5,-411.33 227.5,-411.33 227.5,-403.67 227.5,-403.67 227.5,-399.83 231.33,-396 235.17,-396 235.17,-396 364.83,-396 364.83,-396 368.67,-396 372.5,-399.83 372.5,-403.67 372.5,-403.67 372.5,-411.33 372.5,-411.33 372.5,-415.17 368.67,-419 364.83,-419"/>
<text text-anchor="middle" x="300" y="-403.8" font-family="Arial" font-size="14.00" fill="#cfffac">laravel/eslint.config.js</text>
</g>
<!-- laravel/resources/js/App.vue -->
<g id="node8" class="node">
<title>laravel/resources/js/App.vue</title>
<path fill="none" stroke="#c6c5fe" d="M943.83,-620C943.83,-620 773.17,-620 773.17,-620 769.33,-620 765.5,-616.17 765.5,-612.33 765.5,-612.33 765.5,-604.67 765.5,-604.67 765.5,-600.83 769.33,-597 773.17,-597 773.17,-597 943.83,-597 943.83,-597 947.67,-597 951.5,-600.83 951.5,-604.67 951.5,-604.67 951.5,-612.33 951.5,-612.33 951.5,-616.17 947.67,-620 943.83,-620"/>
<text text-anchor="middle" x="858.5" y="-604.8" font-family="Arial" font-size="14.00" fill="#c6c5fe">laravel/resources/js/App.vue</text>
</g>
<!-- laravel/resources/js/components/Footer.vue -->
<g id="node9" class="node">
<title>laravel/resources/js/components/Footer.vue</title>
<path fill="none" stroke="#cfffac" d="M1408.33,-620C1408.33,-620 1145.67,-620 1145.67,-620 1141.83,-620 1138,-616.17 1138,-612.33 1138,-612.33 1138,-604.67 1138,-604.67 1138,-600.83 1141.83,-597 1145.67,-597 1145.67,-597 1408.33,-597 1408.33,-597 1412.17,-597 1416,-600.83 1416,-604.67 1416,-604.67 1416,-612.33 1416,-612.33 1416,-616.17 1412.17,-620 1408.33,-620"/>
<text text-anchor="middle" x="1277" y="-604.8" font-family="Arial" font-size="14.00" fill="#cfffac">laravel/resources/js/components/Footer.vue</text>
</g>
<!-- laravel/resources/js/App.vue&#45;&gt;laravel/resources/js/components/Footer.vue -->
<g id="edge2" class="edge">
<title>laravel/resources/js/App.vue&#45;&gt;laravel/resources/js/components/Footer.vue</title>
<path fill="none" stroke="#757575" d="M951.68,-608.5C1003.32,-608.5 1068.96,-608.5 1127.65,-608.5"/>
<polygon fill="#757575" stroke="#757575" points="1127.77,-612 1137.77,-608.5 1127.77,-605 1127.77,-612"/>
</g>
<!-- laravel/resources/js/components/NavBar.vue -->
<g id="node10" class="node">
<title>laravel/resources/js/components/NavBar.vue</title>
<path fill="none" stroke="#cfffac" d="M1411.33,-661C1411.33,-661 1142.67,-661 1142.67,-661 1138.83,-661 1135,-657.17 1135,-653.33 1135,-653.33 1135,-645.67 1135,-645.67 1135,-641.83 1138.83,-638 1142.67,-638 1142.67,-638 1411.33,-638 1411.33,-638 1415.17,-638 1419,-641.83 1419,-645.67 1419,-645.67 1419,-653.33 1419,-653.33 1419,-657.17 1415.17,-661 1411.33,-661"/>
<text text-anchor="middle" x="1277" y="-645.8" font-family="Arial" font-size="14.00" fill="#cfffac">laravel/resources/js/components/NavBar.vue</text>
</g>
<!-- laravel/resources/js/App.vue&#45;&gt;laravel/resources/js/components/NavBar.vue -->
<g id="edge3" class="edge">
<title>laravel/resources/js/App.vue&#45;&gt;laravel/resources/js/components/NavBar.vue</title>
<path fill="none" stroke="#757575" d="M951.68,-617.57C1009.67,-623.28 1085.32,-630.73 1148.96,-636.99"/>
<polygon fill="#757575" stroke="#757575" points="1148.78,-640.49 1159.07,-637.99 1149.46,-633.53 1148.78,-640.49"/>
</g>
<!-- laravel/resources/js/app.js -->
<g id="node11" class="node">
<title>laravel/resources/js/app.js</title>
<path fill="none" stroke="#c6c5fe" d="M378.83,-558C378.83,-558 221.17,-558 221.17,-558 217.33,-558 213.5,-554.17 213.5,-550.33 213.5,-550.33 213.5,-542.67 213.5,-542.67 213.5,-538.83 217.33,-535 221.17,-535 221.17,-535 378.83,-535 378.83,-535 382.67,-535 386.5,-538.83 386.5,-542.67 386.5,-542.67 386.5,-550.33 386.5,-550.33 386.5,-554.17 382.67,-558 378.83,-558"/>
<text text-anchor="middle" x="300" y="-542.8" font-family="Arial" font-size="14.00" fill="#c6c5fe">laravel/resources/js/app.js</text>
</g>
<!-- laravel/resources/js/app.js&#45;&gt;laravel/resources/js/App.vue -->
<g id="edge4" class="edge">
<title>laravel/resources/js/app.js&#45;&gt;laravel/resources/js/App.vue</title>
<path fill="none" stroke="#757575" d="M386.64,-541.95C447.47,-541.17 530.36,-545.15 600,-566.5 617.71,-571.93 618.37,-581.83 636,-587.5 673.89,-599.69 717.16,-605.47 755.35,-608.02"/>
<polygon fill="#757575" stroke="#757575" points="755.26,-611.53 765.46,-608.63 755.68,-604.54 755.26,-611.53"/>
</g>
<!-- laravel/resources/js/assets/main.css -->
<g id="node12" class="node">
<title>laravel/resources/js/assets/main.css</title>
<path fill="none" stroke="#c6c5fe" d="M967.33,-579C967.33,-579 749.67,-579 749.67,-579 745.83,-579 742,-575.17 742,-571.33 742,-571.33 742,-563.67 742,-563.67 742,-559.83 745.83,-556 749.67,-556 749.67,-556 967.33,-556 967.33,-556 971.17,-556 975,-559.83 975,-563.67 975,-563.67 975,-571.33 975,-571.33 975,-575.17 971.17,-579 967.33,-579"/>
<text text-anchor="middle" x="858.5" y="-563.8" font-family="Arial" font-size="14.00" fill="#c6c5fe">laravel/resources/js/assets/main.css</text>
</g>
<!-- laravel/resources/js/app.js&#45;&gt;laravel/resources/js/assets/main.css -->
<g id="edge5" class="edge">
<title>laravel/resources/js/app.js&#45;&gt;laravel/resources/js/assets/main.css</title>
<path fill="none" stroke="#757575" d="M386.73,-549.74C478.96,-553.22 626.53,-558.78 731.86,-562.76"/>
<polygon fill="#757575" stroke="#757575" points="731.79,-566.26 741.92,-563.14 732.06,-559.26 731.79,-566.26"/>
</g>
<!-- laravel/resources/js/bootstrap.js -->
<g id="node13" class="node">
<title>laravel/resources/js/bootstrap.js</title>
<path fill="none" stroke="#cfffac" d="M953.83,-538C953.83,-538 763.17,-538 763.17,-538 759.33,-538 755.5,-534.17 755.5,-530.33 755.5,-530.33 755.5,-522.67 755.5,-522.67 755.5,-518.83 759.33,-515 763.17,-515 763.17,-515 953.83,-515 953.83,-515 957.67,-515 961.5,-518.83 961.5,-522.67 961.5,-522.67 961.5,-530.33 961.5,-530.33 961.5,-534.17 957.67,-538 953.83,-538"/>
<text text-anchor="middle" x="858.5" y="-522.8" font-family="Arial" font-size="14.00" fill="#cfffac">laravel/resources/js/bootstrap.js</text>
</g>
<!-- laravel/resources/js/app.js&#45;&gt;laravel/resources/js/bootstrap.js -->
<g id="edge6" class="edge">
<title>laravel/resources/js/app.js&#45;&gt;laravel/resources/js/bootstrap.js</title>
<path fill="none" stroke="#757575" d="M386.73,-543.42C482.87,-539.96 639.16,-534.35 745.03,-530.54"/>
<polygon fill="#757575" stroke="#757575" points="745.25,-534.04 755.12,-530.18 745,-527.04 745.25,-534.04"/>
</g>
<!-- laravel/resources/js/router/index.js -->
<g id="node14" class="node">
<title>laravel/resources/js/router/index.js</title>
<path fill="none" stroke="#c6c5fe" d="M961.33,-300C961.33,-300 755.67,-300 755.67,-300 751.83,-300 748,-296.17 748,-292.33 748,-292.33 748,-284.67 748,-284.67 748,-280.83 751.83,-277 755.67,-277 755.67,-277 961.33,-277 961.33,-277 965.17,-277 969,-280.83 969,-284.67 969,-284.67 969,-292.33 969,-292.33 969,-296.17 965.17,-300 961.33,-300"/>
<text text-anchor="middle" x="858.5" y="-284.8" font-family="Arial" font-size="14.00" fill="#c6c5fe">laravel/resources/js/router/index.js</text>
</g>
<!-- laravel/resources/js/app.js&#45;&gt;laravel/resources/js/router/index.js -->
<g id="edge7" class="edge">
<title>laravel/resources/js/app.js&#45;&gt;laravel/resources/js/router/index.js</title>
<path fill="none" stroke="#757575" d="M333.82,-534.86C389.43,-514.83 505.34,-471.71 600,-427.5 685.44,-387.6 782.36,-332.48 829.19,-305.19"/>
<polygon fill="#757575" stroke="#757575" points="831,-308.19 837.87,-300.12 827.47,-302.14 831,-308.19"/>
</g>
<!-- laravel/resources/js/assets/base.css -->
<g id="node15" class="node">
<title>laravel/resources/js/assets/base.css</title>
<path fill="none" stroke="#cfffac" d="M1385.83,-579C1385.83,-579 1168.17,-579 1168.17,-579 1164.33,-579 1160.5,-575.17 1160.5,-571.33 1160.5,-571.33 1160.5,-563.67 1160.5,-563.67 1160.5,-559.83 1164.33,-556 1168.17,-556 1168.17,-556 1385.83,-556 1385.83,-556 1389.67,-556 1393.5,-559.83 1393.5,-563.67 1393.5,-563.67 1393.5,-571.33 1393.5,-571.33 1393.5,-575.17 1389.67,-579 1385.83,-579"/>
<text text-anchor="middle" x="1277" y="-563.8" font-family="Arial" font-size="14.00" fill="#cfffac">laravel/resources/js/assets/base.css</text>
</g>
<!-- laravel/resources/js/assets/main.css&#45;&gt;laravel/resources/js/assets/base.css -->
<g id="edge8" class="edge">
<title>laravel/resources/js/assets/main.css&#45;&gt;laravel/resources/js/assets/base.css</title>
<path fill="none" stroke="#757575" d="M975.24,-567.5C1029.63,-567.5 1094.58,-567.5 1150.19,-567.5"/>
<polygon fill="#757575" stroke="#757575" points="1150.46,-571 1160.46,-567.5 1150.46,-564 1150.46,-571"/>
</g>
<!-- laravel/resources/js/stores/auth.js -->
<g id="node27" class="node">
<title>laravel/resources/js/stores/auth.js</title>
<path fill="none" stroke="#c6c5fe" d="M2364.33,-297C2364.33,-297 2162.67,-297 2162.67,-297 2158.83,-297 2155,-293.17 2155,-289.33 2155,-289.33 2155,-281.67 2155,-281.67 2155,-277.83 2158.83,-274 2162.67,-274 2162.67,-274 2364.33,-274 2364.33,-274 2368.17,-274 2372,-277.83 2372,-281.67 2372,-281.67 2372,-289.33 2372,-289.33 2372,-293.17 2368.17,-297 2364.33,-297"/>
<text text-anchor="middle" x="2263.5" y="-281.8" font-family="Arial" font-size="14.00" fill="#c6c5fe">laravel/resources/js/stores/auth.js</text>
</g>
<!-- laravel/resources/js/router/index.js&#45;&gt;laravel/resources/js/stores/auth.js -->
<g id="edge12" class="edge">
<title>laravel/resources/js/router/index.js&#45;&gt;laravel/resources/js/stores/auth.js</title>
<path fill="none" stroke="#757575" d="M895.28,-300.07C944.59,-315.46 1036.49,-342.16 1117,-354.5 1557.42,-422.02 1694.22,-521 2119,-386.5 2169.84,-370.4 2218.25,-329.09 2243.78,-304.58"/>
<polygon fill="#757575" stroke="#757575" points="2246.55,-306.76 2251.24,-297.26 2241.65,-301.77 2246.55,-306.76"/>
</g>
<!-- laravel/resources/js/views/AboutView.vue -->
<g id="node28" class="node">
<title>laravel/resources/js/views/AboutView.vue</title>
<path fill="none" stroke="#cfffac" d="M1400.83,-64C1400.83,-64 1153.17,-64 1153.17,-64 1149.33,-64 1145.5,-60.17 1145.5,-56.33 1145.5,-56.33 1145.5,-48.67 1145.5,-48.67 1145.5,-44.83 1149.33,-41 1153.17,-41 1153.17,-41 1400.83,-41 1400.83,-41 1404.67,-41 1408.5,-44.83 1408.5,-48.67 1408.5,-48.67 1408.5,-56.33 1408.5,-56.33 1408.5,-60.17 1404.67,-64 1400.83,-64"/>
<text text-anchor="middle" x="1277" y="-48.8" font-family="Arial" font-size="14.00" fill="#cfffac">laravel/resources/js/views/AboutView.vue</text>
</g>
<!-- laravel/resources/js/router/index.js&#45;&gt;laravel/resources/js/views/AboutView.vue -->
<g id="edge13" class="edge">
<title>laravel/resources/js/router/index.js&#45;&gt;laravel/resources/js/views/AboutView.vue</title>
<path fill="none" stroke="#757575" d="M914.57,-300.03C964.4,-307 1036.58,-307.94 1081,-267.5 1144.23,-209.93 1055.75,-138.17 1117,-78.5 1122.78,-72.87 1129.27,-68.18 1136.24,-64.29"/>
<polygon fill="#757575" stroke="#757575" points="1137.92,-67.37 1145.31,-59.78 1134.8,-61.1 1137.92,-67.37"/>
</g>
<!-- laravel/resources/js/views/ApplicationsView.vue -->
<g id="node29" class="node">
<title>laravel/resources/js/views/ApplicationsView.vue</title>
<path fill="none" stroke="#c6c5fe" d="M1768.33,-221C1768.33,-221 1482.67,-221 1482.67,-221 1478.83,-221 1475,-217.17 1475,-213.33 1475,-213.33 1475,-205.67 1475,-205.67 1475,-201.83 1478.83,-198 1482.67,-198 1482.67,-198 1768.33,-198 1768.33,-198 1772.17,-198 1776,-201.83 1776,-205.67 1776,-205.67 1776,-213.33 1776,-213.33 1776,-217.17 1772.17,-221 1768.33,-221"/>
<text text-anchor="middle" x="1625.5" y="-205.8" font-family="Arial" font-size="14.00" fill="#c6c5fe">laravel/resources/js/views/ApplicationsView.vue</text>
</g>
<!-- laravel/resources/js/router/index.js&#45;&gt;laravel/resources/js/views/ApplicationsView.vue -->
<g id="edge14" class="edge">
<title>laravel/resources/js/router/index.js&#45;&gt;laravel/resources/js/views/ApplicationsView.vue</title>
<path fill="none" stroke="#757575" d="M969.09,-278.37C1004.78,-275 1044.59,-271.17 1081,-267.5 1229.21,-252.57 1400.01,-234.14 1509.97,-222.12"/>
<polygon fill="#757575" stroke="#757575" points="1510.53,-225.58 1520.09,-221.01 1509.77,-218.62 1510.53,-225.58"/>
</g>
<!-- laravel/resources/js/views/DeveloperDetail.vue -->
<g id="node30" class="node">
<title>laravel/resources/js/views/DeveloperDetail.vue</title>
<path fill="none" stroke="#c6c5fe" d="M1417.33,-300C1417.33,-300 1136.67,-300 1136.67,-300 1132.83,-300 1129,-296.17 1129,-292.33 1129,-292.33 1129,-284.67 1129,-284.67 1129,-280.83 1132.83,-277 1136.67,-277 1136.67,-277 1417.33,-277 1417.33,-277 1421.17,-277 1425,-280.83 1425,-284.67 1425,-284.67 1425,-292.33 1425,-292.33 1425,-296.17 1421.17,-300 1417.33,-300"/>
<text text-anchor="middle" x="1277" y="-284.8" font-family="Arial" font-size="14.00" fill="#c6c5fe">laravel/resources/js/views/DeveloperDetail.vue</text>
</g>
<!-- laravel/resources/js/router/index.js&#45;&gt;laravel/resources/js/views/DeveloperDetail.vue -->
<g id="edge15" class="edge">
<title>laravel/resources/js/router/index.js&#45;&gt;laravel/resources/js/views/DeveloperDetail.vue</title>
<path fill="none" stroke="#757575" d="M969.2,-288.5C1014.86,-288.5 1068.74,-288.5 1118.5,-288.5"/>
<polygon fill="#757575" stroke="#757575" points="1118.72,-292 1128.72,-288.5 1118.72,-285 1118.72,-292"/>
</g>
<!-- laravel/resources/js/views/DevelopersView.vue -->
<g id="node31" class="node">
<title>laravel/resources/js/views/DevelopersView.vue</title>
<path fill="none" stroke="#c6c5fe" d="M1417.33,-182C1417.33,-182 1136.67,-182 1136.67,-182 1132.83,-182 1129,-178.17 1129,-174.33 1129,-174.33 1129,-166.67 1129,-166.67 1129,-162.83 1132.83,-159 1136.67,-159 1136.67,-159 1417.33,-159 1417.33,-159 1421.17,-159 1425,-162.83 1425,-166.67 1425,-166.67 1425,-174.33 1425,-174.33 1425,-178.17 1421.17,-182 1417.33,-182"/>
<text text-anchor="middle" x="1277" y="-166.8" font-family="Arial" font-size="14.00" fill="#c6c5fe">laravel/resources/js/views/DevelopersView.vue</text>
</g>
<!-- laravel/resources/js/router/index.js&#45;&gt;laravel/resources/js/views/DevelopersView.vue -->
<g id="edge16" class="edge">
<title>laravel/resources/js/router/index.js&#45;&gt;laravel/resources/js/views/DevelopersView.vue</title>
<path fill="none" stroke="#757575" d="M969.03,-298.89C1007.27,-297.41 1048.68,-289.52 1081,-267.5 1110.24,-247.58 1088.45,-217.4 1117,-196.5 1122.26,-192.65 1127.88,-189.29 1133.75,-186.35"/>
<polygon fill="#757575" stroke="#757575" points="1135.5,-189.4 1143.16,-182.09 1132.61,-183.03 1135.5,-189.4"/>
</g>
<!-- laravel/resources/js/views/Error404View.vue -->
<g id="node32" class="node">
<title>laravel/resources/js/views/Error404View.vue</title>
<path fill="none" stroke="#cfffac" d="M1409.83,-23C1409.83,-23 1144.17,-23 1144.17,-23 1140.33,-23 1136.5,-19.17 1136.5,-15.33 1136.5,-15.33 1136.5,-7.67 1136.5,-7.67 1136.5,-3.83 1140.33,0 1144.17,0 1144.17,0 1409.83,0 1409.83,0 1413.67,0 1417.5,-3.83 1417.5,-7.67 1417.5,-7.67 1417.5,-15.33 1417.5,-15.33 1417.5,-19.17 1413.67,-23 1409.83,-23"/>
<text text-anchor="middle" x="1277" y="-7.8" font-family="Arial" font-size="14.00" fill="#cfffac">laravel/resources/js/views/Error404View.vue</text>
</g>
<!-- laravel/resources/js/router/index.js&#45;&gt;laravel/resources/js/views/Error404View.vue -->
<g id="edge17" class="edge">
<title>laravel/resources/js/router/index.js&#45;&gt;laravel/resources/js/views/Error404View.vue</title>
<path fill="none" stroke="#757575" d="M912.52,-300.05C962.66,-307.59 1036.64,-309.41 1081,-267.5 1158.13,-194.64 1041,-105.53 1117,-31.5 1120.34,-28.25 1123.93,-25.33 1127.71,-22.73"/>
<polygon fill="#757575" stroke="#757575" points="1129.57,-25.69 1136.29,-17.51 1125.93,-19.71 1129.57,-25.69"/>
</g>
<!-- laravel/resources/js/views/HomeView.vue -->
<g id="node33" class="node">
<title>laravel/resources/js/views/HomeView.vue</title>
<path fill="none" stroke="#cfffac" d="M1401.83,-538C1401.83,-538 1152.17,-538 1152.17,-538 1148.33,-538 1144.5,-534.17 1144.5,-530.33 1144.5,-530.33 1144.5,-522.67 1144.5,-522.67 1144.5,-518.83 1148.33,-515 1152.17,-515 1152.17,-515 1401.83,-515 1401.83,-515 1405.67,-515 1409.5,-518.83 1409.5,-522.67 1409.5,-522.67 1409.5,-530.33 1409.5,-530.33 1409.5,-534.17 1405.67,-538 1401.83,-538"/>
<text text-anchor="middle" x="1277" y="-522.8" font-family="Arial" font-size="14.00" fill="#cfffac">laravel/resources/js/views/HomeView.vue</text>
</g>
<!-- laravel/resources/js/router/index.js&#45;&gt;laravel/resources/js/views/HomeView.vue -->
<g id="edge18" class="edge">
<title>laravel/resources/js/router/index.js&#45;&gt;laravel/resources/js/views/HomeView.vue</title>
<path fill="none" stroke="#757575" d="M868.78,-300.03C899.51,-337.28 1002.55,-454.97 1117,-505.5 1122.68,-508.01 1128.58,-510.24 1134.62,-512.22"/>
<polygon fill="#757575" stroke="#757575" points="1133.62,-515.58 1144.21,-515.14 1135.66,-508.88 1133.62,-515.58"/>
</g>
<!-- laravel/resources/js/views/LoginView.vue -->
<g id="node34" class="node">
<title>laravel/resources/js/views/LoginView.vue</title>
<path fill="none" stroke="#c6c5fe" d="M2089.33,-378C2089.33,-378 1843.67,-378 1843.67,-378 1839.83,-378 1836,-374.17 1836,-370.33 1836,-370.33 1836,-362.67 1836,-362.67 1836,-358.83 1839.83,-355 1843.67,-355 1843.67,-355 2089.33,-355 2089.33,-355 2093.17,-355 2097,-358.83 2097,-362.67 2097,-362.67 2097,-370.33 2097,-370.33 2097,-374.17 2093.17,-378 2089.33,-378"/>
<text text-anchor="middle" x="1966.5" y="-362.8" font-family="Arial" font-size="14.00" fill="#c6c5fe">laravel/resources/js/views/LoginView.vue</text>
</g>
<!-- laravel/resources/js/router/index.js&#45;&gt;laravel/resources/js/views/LoginView.vue -->
<g id="edge19" class="edge">
<title>laravel/resources/js/router/index.js&#45;&gt;laravel/resources/js/views/LoginView.vue</title>
<path fill="none" stroke="#757575" d="M921.17,-300.02C973.19,-309.27 1049.7,-321.79 1117,-328.5 1365.76,-353.32 1657.17,-361.93 1825.64,-364.92"/>
<polygon fill="#757575" stroke="#757575" points="1825.75,-368.42 1835.81,-365.09 1825.87,-361.42 1825.75,-368.42"/>
</g>
<!-- laravel/resources/js/views/OwnedProjectsView.vue -->
<g id="node35" class="node">
<title>laravel/resources/js/views/OwnedProjectsView.vue</title>
<path fill="none" stroke="#cfffac" d="M1429.33,-497C1429.33,-497 1124.67,-497 1124.67,-497 1120.83,-497 1117,-493.17 1117,-489.33 1117,-489.33 1117,-481.67 1117,-481.67 1117,-477.83 1120.83,-474 1124.67,-474 1124.67,-474 1429.33,-474 1429.33,-474 1433.17,-474 1437,-477.83 1437,-481.67 1437,-481.67 1437,-489.33 1437,-489.33 1437,-493.17 1433.17,-497 1429.33,-497"/>
<text text-anchor="middle" x="1277" y="-481.8" font-family="Arial" font-size="14.00" fill="#cfffac">laravel/resources/js/views/OwnedProjectsView.vue</text>
</g>
<!-- laravel/resources/js/router/index.js&#45;&gt;laravel/resources/js/views/OwnedProjectsView.vue -->
<g id="edge20" class="edge">
<title>laravel/resources/js/router/index.js&#45;&gt;laravel/resources/js/views/OwnedProjectsView.vue</title>
<path fill="none" stroke="#757575" d="M871.66,-300.03C906.56,-332.34 1011.3,-424.06 1117,-464.5 1123.79,-467.1 1130.86,-469.39 1138.06,-471.4"/>
<polygon fill="#757575" stroke="#757575" points="1137.41,-474.85 1147.97,-473.98 1139.17,-468.07 1137.41,-474.85"/>
</g>
<!-- laravel/resources/js/views/PostProjectView.vue -->
<g id="node36" class="node">
<title>laravel/resources/js/views/PostProjectView.vue</title>
<path fill="none" stroke="#c6c5fe" d="M1766.33,-98C1766.33,-98 1484.67,-98 1484.67,-98 1480.83,-98 1477,-94.17 1477,-90.33 1477,-90.33 1477,-82.67 1477,-82.67 1477,-78.83 1480.83,-75 1484.67,-75 1484.67,-75 1766.33,-75 1766.33,-75 1770.17,-75 1774,-78.83 1774,-82.67 1774,-82.67 1774,-90.33 1774,-90.33 1774,-94.17 1770.17,-98 1766.33,-98"/>
<text text-anchor="middle" x="1625.5" y="-82.8" font-family="Arial" font-size="14.00" fill="#c6c5fe">laravel/resources/js/views/PostProjectView.vue</text>
</g>
<!-- laravel/resources/js/router/index.js&#45;&gt;laravel/resources/js/views/PostProjectView.vue -->
<g id="edge21" class="edge">
<title>laravel/resources/js/router/index.js&#45;&gt;laravel/resources/js/views/PostProjectView.vue</title>
<path fill="none" stroke="#757575" d="M923.34,-300.01C971.86,-304.97 1037.46,-303.04 1081,-267.5 1123.48,-232.83 1075.03,-184.78 1117,-149.5 1124.49,-143.2 1362.75,-115.66 1510.1,-99.15"/>
<polygon fill="#757575" stroke="#757575" points="1510.56,-102.62 1520.11,-98.02 1509.78,-95.66 1510.56,-102.62"/>
</g>
<!-- laravel/resources/js/views/ProfileView.vue -->
<g id="node37" class="node">
<title>laravel/resources/js/views/ProfileView.vue</title>
<path fill="none" stroke="#cfffac" d="M1402.33,-456C1402.33,-456 1151.67,-456 1151.67,-456 1147.83,-456 1144,-452.17 1144,-448.33 1144,-448.33 1144,-440.67 1144,-440.67 1144,-436.83 1147.83,-433 1151.67,-433 1151.67,-433 1402.33,-433 1402.33,-433 1406.17,-433 1410,-436.83 1410,-440.67 1410,-440.67 1410,-448.33 1410,-448.33 1410,-452.17 1406.17,-456 1402.33,-456"/>
<text text-anchor="middle" x="1277" y="-440.8" font-family="Arial" font-size="14.00" fill="#cfffac">laravel/resources/js/views/ProfileView.vue</text>
</g>
<!-- laravel/resources/js/router/index.js&#45;&gt;laravel/resources/js/views/ProfileView.vue -->
<g id="edge22" class="edge">
<title>laravel/resources/js/router/index.js&#45;&gt;laravel/resources/js/views/ProfileView.vue</title>
<path fill="none" stroke="#757575" d="M877.71,-300.18C918.69,-325.9 1022,-387.57 1117,-418.5 1132.53,-423.56 1149.24,-427.66 1165.8,-430.98"/>
<polygon fill="#757575" stroke="#757575" points="1165.59,-434.5 1176.07,-432.95 1166.91,-427.63 1165.59,-434.5"/>
</g>
<!-- laravel/resources/js/views/ProjectDetailView.vue -->
<g id="node38" class="node">
<title>laravel/resources/js/views/ProjectDetailView.vue</title>
<path fill="none" stroke="#c6c5fe" d="M1770.33,-57C1770.33,-57 1480.67,-57 1480.67,-57 1476.83,-57 1473,-53.17 1473,-49.33 1473,-49.33 1473,-41.67 1473,-41.67 1473,-37.83 1476.83,-34 1480.67,-34 1480.67,-34 1770.33,-34 1770.33,-34 1774.17,-34 1778,-37.83 1778,-41.67 1778,-41.67 1778,-49.33 1778,-49.33 1778,-53.17 1774.17,-57 1770.33,-57"/>
<text text-anchor="middle" x="1625.5" y="-41.8" font-family="Arial" font-size="14.00" fill="#c6c5fe">laravel/resources/js/views/ProjectDetailView.vue</text>
</g>
<!-- laravel/resources/js/router/index.js&#45;&gt;laravel/resources/js/views/ProjectDetailView.vue -->
<g id="edge23" class="edge">
<title>laravel/resources/js/router/index.js&#45;&gt;laravel/resources/js/views/ProjectDetailView.vue</title>
<path fill="none" stroke="#757575" d="M916.69,-300.02C966.21,-306.45 1036.67,-306.59 1081,-267.5 1136,-219.01 1062.28,-155.31 1117,-106.5 1170.37,-58.9 1366.28,-83.11 1437,-72.5 1453.12,-70.08 1456.91,-68.12 1473,-65.5 1488.14,-63.03 1504.18,-60.66 1519.92,-58.46"/>
<polygon fill="#757575" stroke="#757575" points="1520.79,-61.87 1530.22,-57.04 1519.83,-54.94 1520.79,-61.87"/>
</g>
<!-- laravel/resources/js/views/ProjectsView.vue -->
<g id="node39" class="node">
<title>laravel/resources/js/views/ProjectsView.vue</title>
<path fill="none" stroke="#c6c5fe" d="M1756.33,-180C1756.33,-180 1494.67,-180 1494.67,-180 1490.83,-180 1487,-176.17 1487,-172.33 1487,-172.33 1487,-164.67 1487,-164.67 1487,-160.83 1490.83,-157 1494.67,-157 1494.67,-157 1756.33,-157 1756.33,-157 1760.17,-157 1764,-160.83 1764,-164.67 1764,-164.67 1764,-172.33 1764,-172.33 1764,-176.17 1760.17,-180 1756.33,-180"/>
<text text-anchor="middle" x="1625.5" y="-164.8" font-family="Arial" font-size="14.00" fill="#c6c5fe">laravel/resources/js/views/ProjectsView.vue</text>
</g>
<!-- laravel/resources/js/router/index.js&#45;&gt;laravel/resources/js/views/ProjectsView.vue -->
<g id="edge24" class="edge">
<title>laravel/resources/js/router/index.js&#45;&gt;laravel/resources/js/views/ProjectsView.vue</title>
<path fill="none" stroke="#757575" d="M969.27,-293.86C1006.39,-291.66 1047.01,-284.6 1081,-267.5 1102.36,-256.75 1095.75,-238.47 1117,-227.5 1180.61,-194.66 1365.9,-198.78 1437,-190.5 1462.72,-187.5 1490.43,-184.26 1516.44,-181.21"/>
<polygon fill="#757575" stroke="#757575" points="1517.18,-184.65 1526.7,-180.01 1516.36,-177.7 1517.18,-184.65"/>
</g>
<!-- laravel/resources/js/views/SignUpView.vue -->
<g id="node40" class="node">
<title>laravel/resources/js/views/SignUpView.vue</title>
<path fill="none" stroke="#c6c5fe" d="M2094.83,-337C2094.83,-337 1838.17,-337 1838.17,-337 1834.33,-337 1830.5,-333.17 1830.5,-329.33 1830.5,-329.33 1830.5,-321.67 1830.5,-321.67 1830.5,-317.83 1834.33,-314 1838.17,-314 1838.17,-314 2094.83,-314 2094.83,-314 2098.67,-314 2102.5,-317.83 2102.5,-321.67 2102.5,-321.67 2102.5,-329.33 2102.5,-329.33 2102.5,-333.17 2098.67,-337 2094.83,-337"/>
<text text-anchor="middle" x="1966.5" y="-321.8" font-family="Arial" font-size="14.00" fill="#c6c5fe">laravel/resources/js/views/SignUpView.vue</text>
</g>
<!-- laravel/resources/js/router/index.js&#45;&gt;laravel/resources/js/views/SignUpView.vue -->
<g id="edge25" class="edge">
<title>laravel/resources/js/router/index.js&#45;&gt;laravel/resources/js/views/SignUpView.vue</title>
<path fill="none" stroke="#757575" d="M969.05,-298.41C1014.75,-302.17 1068.41,-306.13 1117,-308.5 1363.61,-320.54 1650.94,-324.1 1820.01,-325.12"/>
<polygon fill="#757575" stroke="#757575" points="1820.2,-328.63 1830.22,-325.18 1820.24,-321.63 1820.2,-328.63"/>
</g>
<!-- laravel/resources/js/components/DatePicker.vue -->
<g id="node16" class="node">
<title>laravel/resources/js/components/DatePicker.vue</title>
<path fill="none" stroke="#cfffac" d="M2111.33,-98C2111.33,-98 1821.67,-98 1821.67,-98 1817.83,-98 1814,-94.17 1814,-90.33 1814,-90.33 1814,-82.67 1814,-82.67 1814,-78.83 1817.83,-75 1821.67,-75 1821.67,-75 2111.33,-75 2111.33,-75 2115.17,-75 2119,-78.83 2119,-82.67 2119,-82.67 2119,-90.33 2119,-90.33 2119,-94.17 2115.17,-98 2111.33,-98"/>
<text text-anchor="middle" x="1966.5" y="-82.8" font-family="Arial" font-size="14.00" fill="#cfffac">laravel/resources/js/components/DatePicker.vue</text>
</g>
<!-- laravel/resources/js/components/__tests__/HelloWorld.spec.js -->
<g id="node17" class="node">
<title>laravel/resources/js/components/__tests__/HelloWorld.spec.js</title>
<path fill="none" stroke="#cfffac" d="M486.83,-599C486.83,-599 113.17,-599 113.17,-599 109.33,-599 105.5,-595.17 105.5,-591.33 105.5,-591.33 105.5,-583.67 105.5,-583.67 105.5,-579.83 109.33,-576 113.17,-576 113.17,-576 486.83,-576 486.83,-576 490.67,-576 494.5,-579.83 494.5,-583.67 494.5,-583.67 494.5,-591.33 494.5,-591.33 494.5,-595.17 490.67,-599 486.83,-599"/>
<text text-anchor="middle" x="300" y="-583.8" font-family="Arial" font-size="14.00" fill="#cfffac">laravel/resources/js/components/__tests__/HelloWorld.spec.js</text>
</g>
<!-- laravel/resources/js/cypress.config.js -->
<g id="node18" class="node">
<title>laravel/resources/js/cypress.config.js</title>
<path fill="none" stroke="#cfffac" d="M410.33,-640C410.33,-640 189.67,-640 189.67,-640 185.83,-640 182,-636.17 182,-632.33 182,-632.33 182,-624.67 182,-624.67 182,-620.83 185.83,-617 189.67,-617 189.67,-617 410.33,-617 410.33,-617 414.17,-617 418,-620.83 418,-624.67 418,-624.67 418,-632.33 418,-632.33 418,-636.17 414.17,-640 410.33,-640"/>
<text text-anchor="middle" x="300" y="-624.8" font-family="Arial" font-size="14.00" fill="#cfffac">laravel/resources/js/cypress.config.js</text>
</g>
<!-- laravel/resources/js/cypress/e2e/cucumber/step_definitions/example_steps.js -->
<g id="node19" class="node">
<title>laravel/resources/js/cypress/e2e/cucumber/step_definitions/example_steps.js</title>
<path fill="none" stroke="#cfffac" d="M531.83,-681C531.83,-681 68.17,-681 68.17,-681 64.33,-681 60.5,-677.17 60.5,-673.33 60.5,-673.33 60.5,-665.67 60.5,-665.67 60.5,-661.83 64.33,-658 68.17,-658 68.17,-658 531.83,-658 531.83,-658 535.67,-658 539.5,-661.83 539.5,-665.67 539.5,-665.67 539.5,-673.33 539.5,-673.33 539.5,-677.17 535.67,-681 531.83,-681"/>
<text text-anchor="middle" x="300" y="-665.8" font-family="Arial" font-size="14.00" fill="#cfffac">laravel/resources/js/cypress/e2e/cucumber/step_definitions/example_steps.js</text>
</g>
<!-- laravel/resources/js/cypress/e2e/cucumber/step_definitions/project_application_steps.js -->
<g id="node20" class="node">
<title>laravel/resources/js/cypress/e2e/cucumber/step_definitions/project_application_steps.js</title>
<path fill="none" stroke="#cfffac" d="M562.33,-722C562.33,-722 37.67,-722 37.67,-722 33.83,-722 30,-718.17 30,-714.33 30,-714.33 30,-706.67 30,-706.67 30,-702.83 33.83,-699 37.67,-699 37.67,-699 562.33,-699 562.33,-699 566.17,-699 570,-702.83 570,-706.67 570,-706.67 570,-714.33 570,-714.33 570,-718.17 566.17,-722 562.33,-722"/>
<text text-anchor="middle" x="300" y="-706.8" font-family="Arial" font-size="14.00" fill="#cfffac">laravel/resources/js/cypress/e2e/cucumber/step_definitions/project_application_steps.js</text>
</g>
<!-- laravel/resources/js/cypress/e2e/cucumber/step_definitions/project_publication_steps.js -->
<g id="node21" class="node">
<title>laravel/resources/js/cypress/e2e/cucumber/step_definitions/project_publication_steps.js</title>
<path fill="none" stroke="#cfffac" d="M562.33,-763C562.33,-763 37.67,-763 37.67,-763 33.83,-763 30,-759.17 30,-755.33 30,-755.33 30,-747.67 30,-747.67 30,-743.83 33.83,-740 37.67,-740 37.67,-740 562.33,-740 562.33,-740 566.17,-740 570,-743.83 570,-747.67 570,-747.67 570,-755.33 570,-755.33 570,-759.17 566.17,-763 562.33,-763"/>
<text text-anchor="middle" x="300" y="-747.8" font-family="Arial" font-size="14.00" fill="#cfffac">laravel/resources/js/cypress/e2e/cucumber/step_definitions/project_publication_steps.js</text>
</g>
<!-- laravel/resources/js/cypress/support/commands.js -->
<g id="node22" class="node">
<title>laravel/resources/js/cypress/support/commands.js</title>
<path fill="none" stroke="#cfffac" d="M1009.33,-845C1009.33,-845 707.67,-845 707.67,-845 703.83,-845 700,-841.17 700,-837.33 700,-837.33 700,-829.67 700,-829.67 700,-825.83 703.83,-822 707.67,-822 707.67,-822 1009.33,-822 1009.33,-822 1013.17,-822 1017,-825.83 1017,-829.67 1017,-829.67 1017,-837.33 1017,-837.33 1017,-841.17 1013.17,-845 1009.33,-845"/>
<text text-anchor="middle" x="858.5" y="-829.8" font-family="Arial" font-size="14.00" fill="#cfffac">laravel/resources/js/cypress/support/commands.js</text>
</g>
<!-- laravel/resources/js/cypress/support/component.js -->
<g id="node23" class="node">
<title>laravel/resources/js/cypress/support/component.js</title>
<path fill="none" stroke="#c6c5fe" d="M450.83,-886C450.83,-886 149.17,-886 149.17,-886 145.33,-886 141.5,-882.17 141.5,-878.33 141.5,-878.33 141.5,-870.67 141.5,-870.67 141.5,-866.83 145.33,-863 149.17,-863 149.17,-863 450.83,-863 450.83,-863 454.67,-863 458.5,-866.83 458.5,-870.67 458.5,-870.67 458.5,-878.33 458.5,-878.33 458.5,-882.17 454.67,-886 450.83,-886"/>
<text text-anchor="middle" x="300" y="-870.8" font-family="Arial" font-size="14.00" fill="#c6c5fe">laravel/resources/js/cypress/support/component.js</text>
</g>
<!-- laravel/resources/js/cypress/support/component.js&#45;&gt;laravel/resources/js/cypress/support/commands.js -->
<g id="edge9" class="edge">
<title>laravel/resources/js/cypress/support/component.js&#45;&gt;laravel/resources/js/cypress/support/commands.js</title>
<path fill="none" stroke="#757575" d="M458.52,-863.66C504.17,-860.45 554.07,-856.9 600,-853.5 632.83,-851.07 668,-848.39 701.47,-845.8"/>
<polygon fill="#757575" stroke="#757575" points="702.1,-849.27 711.8,-845.01 701.56,-842.29 702.1,-849.27"/>
</g>
<!-- laravel/resources/js/cypress/support/e2e.js -->
<g id="node24" class="node">
<title>laravel/resources/js/cypress/support/e2e.js</title>
<path fill="none" stroke="#c6c5fe" d="M428.33,-845C428.33,-845 171.67,-845 171.67,-845 167.83,-845 164,-841.17 164,-837.33 164,-837.33 164,-829.67 164,-829.67 164,-825.83 167.83,-822 171.67,-822 171.67,-822 428.33,-822 428.33,-822 432.17,-822 436,-825.83 436,-829.67 436,-829.67 436,-837.33 436,-837.33 436,-841.17 432.17,-845 428.33,-845"/>
<text text-anchor="middle" x="300" y="-829.8" font-family="Arial" font-size="14.00" fill="#c6c5fe">laravel/resources/js/cypress/support/e2e.js</text>
</g>
<!-- laravel/resources/js/cypress/support/e2e.js&#45;&gt;laravel/resources/js/cypress/support/commands.js -->
<g id="edge10" class="edge">
<title>laravel/resources/js/cypress/support/e2e.js&#45;&gt;laravel/resources/js/cypress/support/commands.js</title>
<path fill="none" stroke="#757575" d="M436.07,-833.5C512.35,-833.5 608.36,-833.5 689.47,-833.5"/>
<polygon fill="#757575" stroke="#757575" points="689.79,-837 699.79,-833.5 689.79,-830 689.79,-837"/>
</g>
<!-- laravel/resources/js/cypress/support/index.js -->
<g id="node25" class="node">
<title>laravel/resources/js/cypress/support/index.js</title>
<path fill="none" stroke="#c6c5fe" d="M432.83,-804C432.83,-804 167.17,-804 167.17,-804 163.33,-804 159.5,-800.17 159.5,-796.33 159.5,-796.33 159.5,-788.67 159.5,-788.67 159.5,-784.83 163.33,-781 167.17,-781 167.17,-781 432.83,-781 432.83,-781 436.67,-781 440.5,-784.83 440.5,-788.67 440.5,-788.67 440.5,-796.33 440.5,-796.33 440.5,-800.17 436.67,-804 432.83,-804"/>
<text text-anchor="middle" x="300" y="-788.8" font-family="Arial" font-size="14.00" fill="#c6c5fe">laravel/resources/js/cypress/support/index.js</text>
</g>
<!-- laravel/resources/js/cypress/support/index.js&#45;&gt;laravel/resources/js/cypress/support/commands.js -->
<g id="edge11" class="edge">
<title>laravel/resources/js/cypress/support/index.js&#45;&gt;laravel/resources/js/cypress/support/commands.js</title>
<path fill="none" stroke="#757575" d="M440.6,-801.41C490.86,-804.74 547.99,-808.64 600,-812.5 635.88,-815.16 674.55,-818.22 710.75,-821.16"/>
<polygon fill="#757575" stroke="#757575" points="710.63,-824.66 720.89,-821.99 711.2,-817.68 710.63,-824.66"/>
</g>
<!-- laravel/resources/js/plugins/vuetify.js -->
<g id="node26" class="node">
<title>laravel/resources/js/plugins/vuetify.js</title>
<path fill="none" stroke="#cfffac" d="M409.83,-927C409.83,-927 190.17,-927 190.17,-927 186.33,-927 182.5,-923.17 182.5,-919.33 182.5,-919.33 182.5,-911.67 182.5,-911.67 182.5,-907.83 186.33,-904 190.17,-904 190.17,-904 409.83,-904 409.83,-904 413.67,-904 417.5,-907.83 417.5,-911.67 417.5,-911.67 417.5,-919.33 417.5,-919.33 417.5,-923.17 413.67,-927 409.83,-927"/>
<text text-anchor="middle" x="300" y="-911.8" font-family="Arial" font-size="14.00" fill="#cfffac">laravel/resources/js/plugins/vuetify.js</text>
</g>
<!-- laravel/resources/js/services/axios.js -->
<g id="node41" class="node">
<title>laravel/resources/js/services/axios.js</title>
<path fill="none" stroke="#cfffac" d="M2635.33,-179C2635.33,-179 2415.67,-179 2415.67,-179 2411.83,-179 2408,-175.17 2408,-171.33 2408,-171.33 2408,-163.67 2408,-163.67 2408,-159.83 2411.83,-156 2415.67,-156 2415.67,-156 2635.33,-156 2635.33,-156 2639.17,-156 2643,-159.83 2643,-163.67 2643,-163.67 2643,-171.33 2643,-171.33 2643,-175.17 2639.17,-179 2635.33,-179"/>
<text text-anchor="middle" x="2525.5" y="-163.8" font-family="Arial" font-size="14.00" fill="#cfffac">laravel/resources/js/services/axios.js</text>
</g>
<!-- laravel/resources/js/stores/auth.js&#45;&gt;laravel/resources/js/services/axios.js -->
<g id="edge26" class="edge">
<title>laravel/resources/js/stores/auth.js&#45;&gt;laravel/resources/js/services/axios.js</title>
<path fill="none" stroke="#757575" d="M2289.9,-273.97C2336.7,-252.73 2436.57,-207.41 2489.65,-183.32"/>
<polygon fill="#757575" stroke="#757575" points="2491.33,-186.4 2498.99,-179.08 2488.44,-180.02 2491.33,-186.4"/>
</g>
<!-- laravel/resources/js/stores/project.js -->
<g id="node45" class="node">
<title>laravel/resources/js/stores/project.js</title>
<path fill="none" stroke="#c6c5fe" d="M2074.33,-219C2074.33,-219 1858.67,-219 1858.67,-219 1854.83,-219 1851,-215.17 1851,-211.33 1851,-211.33 1851,-203.67 1851,-203.67 1851,-199.83 1854.83,-196 1858.67,-196 1858.67,-196 2074.33,-196 2074.33,-196 2078.17,-196 2082,-199.83 2082,-203.67 2082,-203.67 2082,-211.33 2082,-211.33 2082,-215.17 2078.17,-219 2074.33,-219"/>
<text text-anchor="middle" x="1966.5" y="-203.8" font-family="Arial" font-size="14.00" fill="#c6c5fe">laravel/resources/js/stores/project.js</text>
</g>
<!-- laravel/resources/js/views/ApplicationsView.vue&#45;&gt;laravel/resources/js/stores/project.js -->
<g id="edge34" class="edge">
<title>laravel/resources/js/views/ApplicationsView.vue&#45;&gt;laravel/resources/js/stores/project.js</title>
<path fill="none" stroke="#757575" d="M1776.18,-208.62C1797.75,-208.49 1819.75,-208.36 1840.76,-208.24"/>
<polygon fill="#757575" stroke="#757575" points="1841.01,-211.73 1850.99,-208.18 1840.97,-204.73 1841.01,-211.73"/>
</g>
<!-- laravel/resources/js/views/DeveloperDetail.vue&#45;&gt;laravel/resources/js/stores/auth.js -->
<g id="edge35" class="edge">
<title>laravel/resources/js/views/DeveloperDetail.vue&#45;&gt;laravel/resources/js/stores/auth.js</title>
<path fill="none" stroke="#757575" d="M1425.12,-288.05C1621.29,-287.45 1964.64,-286.41 2144.69,-285.86"/>
<polygon fill="#757575" stroke="#757575" points="2144.74,-289.36 2154.73,-285.83 2144.72,-282.36 2144.74,-289.36"/>
</g>
<!-- laravel/resources/js/stores/developer.js -->
<g id="node43" class="node">
<title>laravel/resources/js/stores/developer.js</title>
<path fill="none" stroke="#c6c5fe" d="M1742.33,-139C1742.33,-139 1508.67,-139 1508.67,-139 1504.83,-139 1501,-135.17 1501,-131.33 1501,-131.33 1501,-123.67 1501,-123.67 1501,-119.83 1504.83,-116 1508.67,-116 1508.67,-116 1742.33,-116 1742.33,-116 1746.17,-116 1750,-119.83 1750,-123.67 1750,-123.67 1750,-131.33 1750,-131.33 1750,-135.17 1746.17,-139 1742.33,-139"/>
<text text-anchor="middle" x="1625.5" y="-123.8" font-family="Arial" font-size="14.00" fill="#c6c5fe">laravel/resources/js/stores/developer.js</text>
</g>
<!-- laravel/resources/js/views/DeveloperDetail.vue&#45;&gt;laravel/resources/js/stores/developer.js -->
<g id="edge36" class="edge">
<title>laravel/resources/js/views/DeveloperDetail.vue&#45;&gt;laravel/resources/js/stores/developer.js</title>
<path fill="none" stroke="#757575" d="M1301.68,-276.99C1334.2,-260.52 1393.59,-228.04 1437,-190.5 1455.85,-174.2 1451.16,-159.5 1473,-147.5 1478.72,-144.36 1484.74,-141.63 1490.95,-139.27"/>
<polygon fill="#757575" stroke="#757575" points="1492.54,-142.43 1500.86,-135.87 1490.26,-135.81 1492.54,-142.43"/>
</g>
<!-- laravel/resources/js/stores/profile.js -->
<g id="node44" class="node">
<title>laravel/resources/js/stores/profile.js</title>
<path fill="none" stroke="#c6c5fe" d="M1731.33,-262C1731.33,-262 1519.67,-262 1519.67,-262 1515.83,-262 1512,-258.17 1512,-254.33 1512,-254.33 1512,-246.67 1512,-246.67 1512,-242.83 1515.83,-239 1519.67,-239 1519.67,-239 1731.33,-239 1731.33,-239 1735.17,-239 1739,-242.83 1739,-246.67 1739,-246.67 1739,-254.33 1739,-254.33 1739,-258.17 1735.17,-262 1731.33,-262"/>
<text text-anchor="middle" x="1625.5" y="-246.8" font-family="Arial" font-size="14.00" fill="#c6c5fe">laravel/resources/js/stores/profile.js</text>
</g>
<!-- laravel/resources/js/views/DeveloperDetail.vue&#45;&gt;laravel/resources/js/stores/profile.js -->
<g id="edge37" class="edge">
<title>laravel/resources/js/views/DeveloperDetail.vue&#45;&gt;laravel/resources/js/stores/profile.js</title>
<path fill="none" stroke="#757575" d="M1382.9,-277C1422.83,-272.62 1468.53,-267.6 1509.36,-263.13"/>
<polygon fill="#757575" stroke="#757575" points="1509.8,-266.6 1519.36,-262.03 1509.04,-259.64 1509.8,-266.6"/>
</g>
<!-- laravel/resources/js/views/DevelopersView.vue&#45;&gt;laravel/resources/js/stores/developer.js -->
<g id="edge38" class="edge">
<title>laravel/resources/js/views/DevelopersView.vue&#45;&gt;laravel/resources/js/stores/developer.js</title>
<path fill="none" stroke="#757575" d="M1370.86,-158.98C1417.36,-153.21 1473.8,-146.2 1521.62,-140.27"/>
<polygon fill="#757575" stroke="#757575" points="1522.2,-143.72 1531.69,-139.02 1521.33,-136.78 1522.2,-143.72"/>
</g>
<!-- laravel/resources/js/views/LoginView.vue&#45;&gt;laravel/resources/js/stores/auth.js -->
<g id="edge39" class="edge">
<title>laravel/resources/js/views/LoginView.vue&#45;&gt;laravel/resources/js/stores/auth.js</title>
<path fill="none" stroke="#757575" d="M2075.79,-354.97C2090.43,-352.4 2105.17,-349.28 2119,-345.5 2158.78,-334.62 2202.17,-315.37 2230.71,-301.6"/>
<polygon fill="#757575" stroke="#757575" points="2232.34,-304.7 2239.79,-297.17 2229.27,-298.41 2232.34,-304.7"/>
</g>
<!-- laravel/resources/js/views/PostProjectView.vue&#45;&gt;laravel/resources/js/components/DatePicker.vue -->
<g id="edge40" class="edge">
<title>laravel/resources/js/views/PostProjectView.vue&#45;&gt;laravel/resources/js/components/DatePicker.vue</title>
<path fill="none" stroke="#757575" d="M1774.2,-86.5C1783.94,-86.5 1793.77,-86.5 1803.57,-86.5"/>
<polygon fill="#757575" stroke="#757575" points="1803.76,-90 1813.76,-86.5 1803.76,-83 1803.76,-90"/>
</g>
<!-- laravel/resources/js/stores/category.js -->
<g id="node42" class="node">
<title>laravel/resources/js/stores/category.js</title>
<path fill="none" stroke="#c6c5fe" d="M2079.83,-139C2079.83,-139 1853.17,-139 1853.17,-139 1849.33,-139 1845.5,-135.17 1845.5,-131.33 1845.5,-131.33 1845.5,-123.67 1845.5,-123.67 1845.5,-119.83 1849.33,-116 1853.17,-116 1853.17,-116 2079.83,-116 2079.83,-116 2083.67,-116 2087.5,-119.83 2087.5,-123.67 2087.5,-123.67 2087.5,-131.33 2087.5,-131.33 2087.5,-135.17 2083.67,-139 2079.83,-139"/>
<text text-anchor="middle" x="1966.5" y="-123.8" font-family="Arial" font-size="14.00" fill="#c6c5fe">laravel/resources/js/stores/category.js</text>
</g>
<!-- laravel/resources/js/views/PostProjectView.vue&#45;&gt;laravel/resources/js/stores/category.js -->
<g id="edge41" class="edge">
<title>laravel/resources/js/views/PostProjectView.vue&#45;&gt;laravel/resources/js/stores/category.js</title>
<path fill="none" stroke="#757575" d="M1721.83,-98.03C1764.89,-103.24 1815.9,-109.41 1860.1,-114.75"/>
<polygon fill="#757575" stroke="#757575" points="1859.95,-118.26 1870.3,-115.99 1860.79,-111.31 1859.95,-118.26"/>
</g>
<!-- laravel/resources/js/views/PostProjectView.vue&#45;&gt;laravel/resources/js/stores/project.js -->
<g id="edge42" class="edge">
<title>laravel/resources/js/views/PostProjectView.vue&#45;&gt;laravel/resources/js/stores/project.js</title>
<path fill="none" stroke="#757575" d="M1758.9,-98.05C1765.51,-100.45 1771.92,-103.25 1778,-106.5 1799.39,-117.93 1794.17,-133.54 1814,-147.5 1843.43,-168.23 1881.02,-183.17 1911.4,-192.96"/>
<polygon fill="#757575" stroke="#757575" points="1910.4,-196.32 1920.99,-195.96 1912.49,-189.64 1910.4,-196.32"/>
</g>
<!-- laravel/resources/js/stores/skill.js -->
<g id="node46" class="node">
<title>laravel/resources/js/stores/skill.js</title>
<path fill="none" stroke="#c6c5fe" d="M2065.33,-57C2065.33,-57 1867.67,-57 1867.67,-57 1863.83,-57 1860,-53.17 1860,-49.33 1860,-49.33 1860,-41.67 1860,-41.67 1860,-37.83 1863.83,-34 1867.67,-34 1867.67,-34 2065.33,-34 2065.33,-34 2069.17,-34 2073,-37.83 2073,-41.67 2073,-41.67 2073,-49.33 2073,-49.33 2073,-53.17 2069.17,-57 2065.33,-57"/>
<text text-anchor="middle" x="1966.5" y="-41.8" font-family="Arial" font-size="14.00" fill="#c6c5fe">laravel/resources/js/stores/skill.js</text>
</g>
<!-- laravel/resources/js/views/PostProjectView.vue&#45;&gt;laravel/resources/js/stores/skill.js -->
<g id="edge43" class="edge">
<title>laravel/resources/js/views/PostProjectView.vue&#45;&gt;laravel/resources/js/stores/skill.js</title>
<path fill="none" stroke="#757575" d="M1721.83,-74.97C1764.89,-69.76 1815.9,-63.59 1860.1,-58.25"/>
<polygon fill="#757575" stroke="#757575" points="1860.79,-61.69 1870.3,-57.01 1859.95,-54.74 1860.79,-61.69"/>
</g>
<!-- laravel/resources/js/views/ProjectDetailView.vue&#45;&gt;laravel/resources/js/components/DatePicker.vue -->
<g id="edge44" class="edge">
<title>laravel/resources/js/views/ProjectDetailView.vue&#45;&gt;laravel/resources/js/components/DatePicker.vue</title>
<path fill="none" stroke="#757575" d="M1721.83,-57.03C1764.89,-62.24 1815.9,-68.41 1860.1,-73.75"/>
<polygon fill="#757575" stroke="#757575" points="1859.95,-77.26 1870.3,-74.99 1860.79,-70.31 1859.95,-77.26"/>
</g>
<!-- laravel/resources/js/views/ProjectDetailView.vue&#45;&gt;laravel/resources/js/stores/category.js -->
<g id="edge45" class="edge">
<title>laravel/resources/js/views/ProjectDetailView.vue&#45;&gt;laravel/resources/js/stores/category.js</title>
<path fill="none" stroke="#757575" d="M1758.9,-57.05C1765.51,-59.45 1771.92,-62.25 1778,-65.5 1799.39,-76.93 1792.65,-95 1814,-106.5 1820.9,-110.22 1828.23,-113.36 1835.79,-116"/>
<polygon fill="#757575" stroke="#757575" points="1834.89,-119.39 1845.48,-119.1 1837.02,-112.72 1834.89,-119.39"/>
</g>
<!-- laravel/resources/js/views/ProjectDetailView.vue&#45;&gt;laravel/resources/js/stores/skill.js -->
<g id="edge46" class="edge">
<title>laravel/resources/js/views/ProjectDetailView.vue&#45;&gt;laravel/resources/js/stores/skill.js</title>
<path fill="none" stroke="#757575" d="M1778.15,-45.5C1802.11,-45.5 1826.55,-45.5 1849.52,-45.5"/>
<polygon fill="#757575" stroke="#757575" points="1849.62,-49 1859.62,-45.5 1849.62,-42 1849.62,-49"/>
</g>
<!-- laravel/resources/js/views/ProjectsView.vue&#45;&gt;laravel/resources/js/stores/project.js -->
<g id="edge47" class="edge">
<title>laravel/resources/js/views/ProjectsView.vue&#45;&gt;laravel/resources/js/stores/project.js</title>
<path fill="none" stroke="#757575" d="M1726.84,-180.04C1767.24,-184.69 1813.97,-190.07 1855.31,-194.82"/>
<polygon fill="#757575" stroke="#757575" points="1855.09,-198.32 1865.42,-195.99 1855.89,-191.37 1855.09,-198.32"/>
</g>
<!-- laravel/resources/js/views/SignUpView.vue&#45;&gt;laravel/resources/js/stores/auth.js -->
<g id="edge48" class="edge">
<title>laravel/resources/js/views/SignUpView.vue&#45;&gt;laravel/resources/js/stores/auth.js</title>
<path fill="none" stroke="#757575" d="M2052.43,-313.98C2088.37,-309.11 2130.39,-303.41 2167.37,-298.4"/>
<polygon fill="#757575" stroke="#757575" points="2168.22,-301.82 2177.66,-297 2167.28,-294.88 2168.22,-301.82"/>
</g>
<!-- laravel/resources/js/stores/category.js&#45;&gt;laravel/resources/js/services/axios.js -->
<g id="edge27" class="edge">
<title>laravel/resources/js/stores/category.js&#45;&gt;laravel/resources/js/services/axios.js</title>
<path fill="none" stroke="#757575" d="M2087.92,-134.38C2168.39,-139.18 2276.59,-146.06 2372,-153.5 2380.38,-154.15 2389.02,-154.86 2397.73,-155.6"/>
<polygon fill="#757575" stroke="#757575" points="2397.7,-159.11 2407.96,-156.47 2398.3,-152.13 2397.7,-159.11"/>
</g>
<!-- laravel/resources/js/stores/developer.js&#45;&gt;laravel/resources/js/services/axios.js -->
<g id="edge28" class="edge">
<title>laravel/resources/js/stores/developer.js&#45;&gt;laravel/resources/js/services/axios.js</title>
<path fill="none" stroke="#757575" d="M1720.8,-139.01C1750.57,-142.26 1783.62,-145.46 1814,-147.5 2017.95,-161.23 2255.44,-165.56 2397.68,-166.91"/>
<polygon fill="#757575" stroke="#757575" points="2397.72,-170.41 2407.75,-167.01 2397.79,-163.41 2397.72,-170.41"/>
</g>
<!-- laravel/resources/js/stores/profile.js&#45;&gt;laravel/resources/js/stores/auth.js -->
<g id="edge29" class="edge">
<title>laravel/resources/js/stores/profile.js&#45;&gt;laravel/resources/js/stores/auth.js</title>
<path fill="none" stroke="#757575" d="M1739.07,-253.55C1838.96,-256.67 1988.81,-262.38 2119,-271.5 2127.35,-272.08 2135.96,-272.76 2144.63,-273.48"/>
<polygon fill="#757575" stroke="#757575" points="2144.55,-276.99 2154.81,-274.35 2145.15,-270.01 2144.55,-276.99"/>
</g>
<!-- laravel/resources/js/stores/profile.js&#45;&gt;laravel/resources/js/stores/project.js -->
<g id="edge30" class="edge">
<title>laravel/resources/js/stores/profile.js&#45;&gt;laravel/resources/js/stores/project.js</title>
<path fill="none" stroke="#757575" d="M1717.35,-238.98C1762.75,-233.22 1817.83,-226.23 1864.55,-220.3"/>
<polygon fill="#757575" stroke="#757575" points="1865.22,-223.75 1874.7,-219.02 1864.34,-216.8 1865.22,-223.75"/>
</g>
<!-- laravel/resources/js/stores/project.js&#45;&gt;laravel/resources/js/stores/auth.js -->
<g id="edge32" class="edge">
<title>laravel/resources/js/stores/project.js&#45;&gt;laravel/resources/js/stores/auth.js</title>
<path fill="none" stroke="#757575" d="M2050.63,-219.03C2073,-222.88 2097.07,-227.69 2119,-233.5 2156.01,-243.3 2196.94,-258.6 2225.59,-270.07"/>
<polygon fill="#757575" stroke="#757575" points="2224.6,-273.44 2235.19,-273.95 2227.23,-266.96 2224.6,-273.44"/>
</g>
<!-- laravel/resources/js/stores/project.js&#45;&gt;laravel/resources/js/services/axios.js -->
<g id="edge31" class="edge">
<title>laravel/resources/js/stores/project.js&#45;&gt;laravel/resources/js/services/axios.js</title>
<path fill="none" stroke="#757575" d="M2082.2,-200.97C2163.21,-196.15 2274.31,-189.12 2372,-181.5 2380.38,-180.85 2389.02,-180.14 2397.73,-179.4"/>
<polygon fill="#757575" stroke="#757575" points="2398.3,-182.87 2407.96,-178.53 2397.7,-175.89 2398.3,-182.87"/>
</g>
<!-- laravel/resources/js/stores/skill.js&#45;&gt;laravel/resources/js/services/axios.js -->
<g id="edge33" class="edge">
<title>laravel/resources/js/stores/skill.js&#45;&gt;laravel/resources/js/services/axios.js</title>
<path fill="none" stroke="#757575" d="M2067.59,-57.05C2084.79,-59.51 2102.45,-62.34 2119,-65.5 2248.99,-90.34 2399.49,-131.53 2475.36,-153.19"/>
<polygon fill="#757575" stroke="#757575" points="2474.55,-156.59 2485.12,-155.98 2476.47,-149.86 2474.55,-156.59"/>
</g>
<!-- laravel/vendor/filp/whoops/src/Whoops/Resources/js/clipboard.min.js -->
<g id="node47" class="node">
<title>laravel/vendor/filp/whoops/src/Whoops/Resources/js/clipboard.min.js</title>
<path fill="none" stroke="#cfffac" d="M506.33,-968C506.33,-968 93.67,-968 93.67,-968 89.83,-968 86,-964.17 86,-960.33 86,-960.33 86,-952.67 86,-952.67 86,-948.83 89.83,-945 93.67,-945 93.67,-945 506.33,-945 506.33,-945 510.17,-945 514,-948.83 514,-952.67 514,-952.67 514,-960.33 514,-960.33 514,-964.17 510.17,-968 506.33,-968"/>
<text text-anchor="middle" x="300" y="-952.8" font-family="Arial" font-size="14.00" fill="#cfffac">laravel/vendor/filp/whoops/src/Whoops/Resources/js/clipboard.min.js</text>
</g>
<!-- laravel/vendor/filp/whoops/src/Whoops/Resources/js/prism.js -->
<g id="node48" class="node">
<title>laravel/vendor/filp/whoops/src/Whoops/Resources/js/prism.js</title>
<path fill="none" stroke="#cfffac" d="M482.83,-1009C482.83,-1009 117.17,-1009 117.17,-1009 113.33,-1009 109.5,-1005.17 109.5,-1001.33 109.5,-1001.33 109.5,-993.67 109.5,-993.67 109.5,-989.83 113.33,-986 117.17,-986 117.17,-986 482.83,-986 482.83,-986 486.67,-986 490.5,-989.83 490.5,-993.67 490.5,-993.67 490.5,-1001.33 490.5,-1001.33 490.5,-1005.17 486.67,-1009 482.83,-1009"/>
<text text-anchor="middle" x="300" y="-993.8" font-family="Arial" font-size="14.00" fill="#cfffac">laravel/vendor/filp/whoops/src/Whoops/Resources/js/prism.js</text>
</g>
<!-- laravel/vendor/filp/whoops/src/Whoops/Resources/js/whoops.base.js -->
<g id="node49" class="node">
<title>laravel/vendor/filp/whoops/src/Whoops/Resources/js/whoops.base.js</title>
<path fill="none" stroke="#cfffac" d="M505.83,-1050C505.83,-1050 94.17,-1050 94.17,-1050 90.33,-1050 86.5,-1046.17 86.5,-1042.33 86.5,-1042.33 86.5,-1034.67 86.5,-1034.67 86.5,-1030.83 90.33,-1027 94.17,-1027 94.17,-1027 505.83,-1027 505.83,-1027 509.67,-1027 513.5,-1030.83 513.5,-1034.67 513.5,-1034.67 513.5,-1042.33 513.5,-1042.33 513.5,-1046.17 509.67,-1050 505.83,-1050"/>
<text text-anchor="middle" x="300" y="-1034.8" font-family="Arial" font-size="14.00" fill="#cfffac">laravel/vendor/filp/whoops/src/Whoops/Resources/js/whoops.base.js</text>
</g>
<!-- laravel/vendor/filp/whoops/src/Whoops/Resources/js/zepto.min.js -->
<g id="node50" class="node">
<title>laravel/vendor/filp/whoops/src/Whoops/Resources/js/zepto.min.js</title>
<path fill="none" stroke="#cfffac" d="M495.83,-1091C495.83,-1091 104.17,-1091 104.17,-1091 100.33,-1091 96.5,-1087.17 96.5,-1083.33 96.5,-1083.33 96.5,-1075.67 96.5,-1075.67 96.5,-1071.83 100.33,-1068 104.17,-1068 104.17,-1068 495.83,-1068 495.83,-1068 499.67,-1068 503.5,-1071.83 503.5,-1075.67 503.5,-1075.67 503.5,-1083.33 503.5,-1083.33 503.5,-1087.17 499.67,-1091 495.83,-1091"/>
<text text-anchor="middle" x="300" y="-1075.8" font-family="Arial" font-size="14.00" fill="#cfffac">laravel/vendor/filp/whoops/src/Whoops/Resources/js/zepto.min.js</text>
</g>
<!-- laravel/vendor/laracasts/cypress/src/stubs/cypress.config.js -->
<g id="node51" class="node">
<title>laravel/vendor/laracasts/cypress/src/stubs/cypress.config.js</title>
<path fill="none" stroke="#cfffac" d="M477.83,-1132C477.83,-1132 122.17,-1132 122.17,-1132 118.33,-1132 114.5,-1128.17 114.5,-1124.33 114.5,-1124.33 114.5,-1116.67 114.5,-1116.67 114.5,-1112.83 118.33,-1109 122.17,-1109 122.17,-1109 477.83,-1109 477.83,-1109 481.67,-1109 485.5,-1112.83 485.5,-1116.67 485.5,-1116.67 485.5,-1124.33 485.5,-1124.33 485.5,-1128.17 481.67,-1132 477.83,-1132"/>
<text text-anchor="middle" x="300" y="-1116.8" font-family="Arial" font-size="14.00" fill="#cfffac">laravel/vendor/laracasts/cypress/src/stubs/cypress.config.js</text>
</g>
<!-- laravel/vendor/laracasts/cypress/src/stubs/integration/example.cy.js -->
<g id="node52" class="node">
<title>laravel/vendor/laracasts/cypress/src/stubs/integration/example.cy.js</title>
<path fill="none" stroke="#cfffac" d="M501.83,-1173C501.83,-1173 98.17,-1173 98.17,-1173 94.33,-1173 90.5,-1169.17 90.5,-1165.33 90.5,-1165.33 90.5,-1157.67 90.5,-1157.67 90.5,-1153.83 94.33,-1150 98.17,-1150 98.17,-1150 501.83,-1150 501.83,-1150 505.67,-1150 509.5,-1153.83 509.5,-1157.67 509.5,-1157.67 509.5,-1165.33 509.5,-1165.33 509.5,-1169.17 505.67,-1173 501.83,-1173"/>
<text text-anchor="middle" x="300" y="-1157.8" font-family="Arial" font-size="14.00" fill="#cfffac">laravel/vendor/laracasts/cypress/src/stubs/integration/example.cy.js</text>
</g>
<!-- laravel/vendor/laracasts/cypress/src/stubs/plugins/index.js -->
<g id="node53" class="node">
<title>laravel/vendor/laracasts/cypress/src/stubs/plugins/index.js</title>
<path fill="none" stroke="#c6c5fe" d="M473.83,-1214C473.83,-1214 126.17,-1214 126.17,-1214 122.33,-1214 118.5,-1210.17 118.5,-1206.33 118.5,-1206.33 118.5,-1198.67 118.5,-1198.67 118.5,-1194.83 122.33,-1191 126.17,-1191 126.17,-1191 473.83,-1191 473.83,-1191 477.67,-1191 481.5,-1194.83 481.5,-1198.67 481.5,-1198.67 481.5,-1206.33 481.5,-1206.33 481.5,-1210.17 477.67,-1214 473.83,-1214"/>
<text text-anchor="middle" x="300" y="-1198.8" font-family="Arial" font-size="14.00" fill="#c6c5fe">laravel/vendor/laracasts/cypress/src/stubs/plugins/index.js</text>
</g>
<!-- laravel/vendor/laracasts/cypress/src/stubs/plugins/swap&#45;env.js -->
<g id="node54" class="node">
<title>laravel/vendor/laracasts/cypress/src/stubs/plugins/swap&#45;env.js</title>
<path fill="none" stroke="#cfffac" d="M1044.83,-1214C1044.83,-1214 672.17,-1214 672.17,-1214 668.33,-1214 664.5,-1210.17 664.5,-1206.33 664.5,-1206.33 664.5,-1198.67 664.5,-1198.67 664.5,-1194.83 668.33,-1191 672.17,-1191 672.17,-1191 1044.83,-1191 1044.83,-1191 1048.67,-1191 1052.5,-1194.83 1052.5,-1198.67 1052.5,-1198.67 1052.5,-1206.33 1052.5,-1206.33 1052.5,-1210.17 1048.67,-1214 1044.83,-1214"/>
<text text-anchor="middle" x="858.5" y="-1198.8" font-family="Arial" font-size="14.00" fill="#cfffac">laravel/vendor/laracasts/cypress/src/stubs/plugins/swap&#45;env.js</text>
</g>
<!-- laravel/vendor/laracasts/cypress/src/stubs/plugins/index.js&#45;&gt;laravel/vendor/laracasts/cypress/src/stubs/plugins/swap&#45;env.js -->
<g id="edge49" class="edge">
<title>laravel/vendor/laracasts/cypress/src/stubs/plugins/index.js&#45;&gt;laravel/vendor/laracasts/cypress/src/stubs/plugins/swap&#45;env.js</title>
<path fill="none" stroke="#757575" d="M481.68,-1202.5C536.77,-1202.5 597.7,-1202.5 654.18,-1202.5"/>
<polygon fill="#757575" stroke="#757575" points="654.3,-1206 664.3,-1202.5 654.3,-1199 654.3,-1206"/>
</g>
<!-- laravel/vendor/laracasts/cypress/src/stubs/support/assertions.js -->
<g id="node55" class="node">
<title>laravel/vendor/laracasts/cypress/src/stubs/support/assertions.js</title>
<path fill="none" stroke="#cfffac" d="M1048.33,-1337C1048.33,-1337 668.67,-1337 668.67,-1337 664.83,-1337 661,-1333.17 661,-1329.33 661,-1329.33 661,-1321.67 661,-1321.67 661,-1317.83 664.83,-1314 668.67,-1314 668.67,-1314 1048.33,-1314 1048.33,-1314 1052.17,-1314 1056,-1317.83 1056,-1321.67 1056,-1321.67 1056,-1329.33 1056,-1329.33 1056,-1333.17 1052.17,-1337 1048.33,-1337"/>
<text text-anchor="middle" x="858.5" y="-1321.8" font-family="Arial" font-size="14.00" fill="#cfffac">laravel/vendor/laracasts/cypress/src/stubs/support/assertions.js</text>
</g>
<!-- laravel/vendor/laracasts/cypress/src/stubs/support/index.js -->
<g id="node56" class="node">
<title>laravel/vendor/laracasts/cypress/src/stubs/support/index.js</title>
<path fill="none" stroke="#c6c5fe" d="M474.83,-1296C474.83,-1296 125.17,-1296 125.17,-1296 121.33,-1296 117.5,-1292.17 117.5,-1288.33 117.5,-1288.33 117.5,-1280.67 117.5,-1280.67 117.5,-1276.83 121.33,-1273 125.17,-1273 125.17,-1273 474.83,-1273 474.83,-1273 478.67,-1273 482.5,-1276.83 482.5,-1280.67 482.5,-1280.67 482.5,-1288.33 482.5,-1288.33 482.5,-1292.17 478.67,-1296 474.83,-1296"/>
<text text-anchor="middle" x="300" y="-1280.8" font-family="Arial" font-size="14.00" fill="#c6c5fe">laravel/vendor/laracasts/cypress/src/stubs/support/index.js</text>
</g>
<!-- laravel/vendor/laracasts/cypress/src/stubs/support/index.js&#45;&gt;laravel/vendor/laracasts/cypress/src/stubs/support/assertions.js -->
<g id="edge50" class="edge">
<title>laravel/vendor/laracasts/cypress/src/stubs/support/index.js&#45;&gt;laravel/vendor/laracasts/cypress/src/stubs/support/assertions.js</title>
<path fill="none" stroke="#757575" d="M468.25,-1296.03C511.19,-1299.05 557.32,-1302.34 600,-1305.5 632.83,-1307.93 668,-1310.61 701.47,-1313.2"/>
<polygon fill="#757575" stroke="#757575" points="701.56,-1316.71 711.8,-1313.99 702.1,-1309.73 701.56,-1316.71"/>
</g>
<!-- laravel/vendor/laracasts/cypress/src/stubs/support/laravel&#45;commands.js -->
<g id="node57" class="node">
<title>laravel/vendor/laracasts/cypress/src/stubs/support/laravel&#45;commands.js</title>
<path fill="none" stroke="#cfffac" d="M1073.33,-1296C1073.33,-1296 643.67,-1296 643.67,-1296 639.83,-1296 636,-1292.17 636,-1288.33 636,-1288.33 636,-1280.67 636,-1280.67 636,-1276.83 639.83,-1273 643.67,-1273 643.67,-1273 1073.33,-1273 1073.33,-1273 1077.17,-1273 1081,-1276.83 1081,-1280.67 1081,-1280.67 1081,-1288.33 1081,-1288.33 1081,-1292.17 1077.17,-1296 1073.33,-1296"/>
<text text-anchor="middle" x="858.5" y="-1280.8" font-family="Arial" font-size="14.00" fill="#cfffac">laravel/vendor/laracasts/cypress/src/stubs/support/laravel&#45;commands.js</text>
</g>
<!-- laravel/vendor/laracasts/cypress/src/stubs/support/index.js&#45;&gt;laravel/vendor/laracasts/cypress/src/stubs/support/laravel&#45;commands.js -->
<g id="edge51" class="edge">
<title>laravel/vendor/laracasts/cypress/src/stubs/support/index.js&#45;&gt;laravel/vendor/laracasts/cypress/src/stubs/support/laravel&#45;commands.js</title>
<path fill="none" stroke="#757575" d="M482.83,-1284.5C528.42,-1284.5 577.95,-1284.5 625.61,-1284.5"/>
<polygon fill="#757575" stroke="#757575" points="625.75,-1288 635.75,-1284.5 625.75,-1281 625.75,-1288"/>
</g>
<!-- laravel/vendor/laracasts/cypress/src/stubs/support/laravel&#45;routes.js -->
<g id="node58" class="node">
<title>laravel/vendor/laracasts/cypress/src/stubs/support/laravel&#45;routes.js</title>
<path fill="none" stroke="#cfffac" d="M1058.33,-1255C1058.33,-1255 658.67,-1255 658.67,-1255 654.83,-1255 651,-1251.17 651,-1247.33 651,-1247.33 651,-1239.67 651,-1239.67 651,-1235.83 654.83,-1232 658.67,-1232 658.67,-1232 1058.33,-1232 1058.33,-1232 1062.17,-1232 1066,-1235.83 1066,-1239.67 1066,-1239.67 1066,-1247.33 1066,-1247.33 1066,-1251.17 1062.17,-1255 1058.33,-1255"/>
<text text-anchor="middle" x="858.5" y="-1239.8" font-family="Arial" font-size="14.00" fill="#cfffac">laravel/vendor/laracasts/cypress/src/stubs/support/laravel&#45;routes.js</text>
</g>
<!-- laravel/vendor/laracasts/cypress/src/stubs/support/index.js&#45;&gt;laravel/vendor/laracasts/cypress/src/stubs/support/laravel&#45;routes.js -->
<g id="edge52" class="edge">
<title>laravel/vendor/laracasts/cypress/src/stubs/support/index.js&#45;&gt;laravel/vendor/laracasts/cypress/src/stubs/support/laravel&#45;routes.js</title>
<path fill="none" stroke="#757575" d="M457.13,-1273C529.9,-1267.64 616.58,-1261.25 690.65,-1255.79"/>
<polygon fill="#757575" stroke="#757575" points="691.3,-1259.25 701.02,-1255.03 690.78,-1252.27 691.3,-1259.25"/>
</g>
<!-- laravel/vendor/phpunit/php&#45;code&#45;coverage/src/Report/Html/Renderer/Template/js/bootstrap.min.js -->
<g id="node59" class="node">
<title>laravel/vendor/phpunit/php&#45;code&#45;coverage/src/Report/Html/Renderer/Template/js/bootstrap.min.js</title>
<path fill="none" stroke="#cfffac" d="M592.33,-1337C592.33,-1337 7.67,-1337 7.67,-1337 3.83,-1337 0,-1333.17 0,-1329.33 0,-1329.33 0,-1321.67 0,-1321.67 0,-1317.83 3.83,-1314 7.67,-1314 7.67,-1314 592.33,-1314 592.33,-1314 596.17,-1314 600,-1317.83 600,-1321.67 600,-1321.67 600,-1329.33 600,-1329.33 600,-1333.17 596.17,-1337 592.33,-1337"/>
<text text-anchor="middle" x="300" y="-1321.8" font-family="Arial" font-size="14.00" fill="#cfffac">laravel/vendor/phpunit/php&#45;code&#45;coverage/src/Report/Html/Renderer/Template/js/bootstrap.min.js</text>
</g>
<!-- laravel/vendor/phpunit/php&#45;code&#45;coverage/src/Report/Html/Renderer/Template/js/d3.min.js -->
<g id="node60" class="node">
<title>laravel/vendor/phpunit/php&#45;code&#45;coverage/src/Report/Html/Renderer/Template/js/d3.min.js</title>
<path fill="none" stroke="#cfffac" d="M571.83,-1378C571.83,-1378 28.17,-1378 28.17,-1378 24.33,-1378 20.5,-1374.17 20.5,-1370.33 20.5,-1370.33 20.5,-1362.67 20.5,-1362.67 20.5,-1358.83 24.33,-1355 28.17,-1355 28.17,-1355 571.83,-1355 571.83,-1355 575.67,-1355 579.5,-1358.83 579.5,-1362.67 579.5,-1362.67 579.5,-1370.33 579.5,-1370.33 579.5,-1374.17 575.67,-1378 571.83,-1378"/>
<text text-anchor="middle" x="300" y="-1362.8" font-family="Arial" font-size="14.00" fill="#cfffac">laravel/vendor/phpunit/php&#45;code&#45;coverage/src/Report/Html/Renderer/Template/js/d3.min.js</text>
</g>
<!-- laravel/vendor/phpunit/php&#45;code&#45;coverage/src/Report/Html/Renderer/Template/js/file.js -->
<g id="node61" class="node">
<title>laravel/vendor/phpunit/php&#45;code&#45;coverage/src/Report/Html/Renderer/Template/js/file.js</title>
<path fill="none" stroke="#cfffac" d="M559.83,-1419C559.83,-1419 40.17,-1419 40.17,-1419 36.33,-1419 32.5,-1415.17 32.5,-1411.33 32.5,-1411.33 32.5,-1403.67 32.5,-1403.67 32.5,-1399.83 36.33,-1396 40.17,-1396 40.17,-1396 559.83,-1396 559.83,-1396 563.67,-1396 567.5,-1399.83 567.5,-1403.67 567.5,-1403.67 567.5,-1411.33 567.5,-1411.33 567.5,-1415.17 563.67,-1419 559.83,-1419"/>
<text text-anchor="middle" x="300" y="-1403.8" font-family="Arial" font-size="14.00" fill="#cfffac">laravel/vendor/phpunit/php&#45;code&#45;coverage/src/Report/Html/Renderer/Template/js/file.js</text>
</g>
<!-- laravel/vendor/phpunit/php&#45;code&#45;coverage/src/Report/Html/Renderer/Template/js/jquery.min.js -->
<g id="node62" class="node">
<title>laravel/vendor/phpunit/php&#45;code&#45;coverage/src/Report/Html/Renderer/Template/js/jquery.min.js</title>
<path fill="none" stroke="#cfffac" d="M582.33,-1460C582.33,-1460 17.67,-1460 17.67,-1460 13.83,-1460 10,-1456.17 10,-1452.33 10,-1452.33 10,-1444.67 10,-1444.67 10,-1440.83 13.83,-1437 17.67,-1437 17.67,-1437 582.33,-1437 582.33,-1437 586.17,-1437 590,-1440.83 590,-1444.67 590,-1444.67 590,-1452.33 590,-1452.33 590,-1456.17 586.17,-1460 582.33,-1460"/>
<text text-anchor="middle" x="300" y="-1444.8" font-family="Arial" font-size="14.00" fill="#cfffac">laravel/vendor/phpunit/php&#45;code&#45;coverage/src/Report/Html/Renderer/Template/js/jquery.min.js</text>
</g>
<!-- laravel/vendor/phpunit/php&#45;code&#45;coverage/src/Report/Html/Renderer/Template/js/nv.d3.min.js -->
<g id="node63" class="node">
<title>laravel/vendor/phpunit/php&#45;code&#45;coverage/src/Report/Html/Renderer/Template/js/nv.d3.min.js</title>
<path fill="none" stroke="#cfffac" d="M580.33,-1501C580.33,-1501 19.67,-1501 19.67,-1501 15.83,-1501 12,-1497.17 12,-1493.33 12,-1493.33 12,-1485.67 12,-1485.67 12,-1481.83 15.83,-1478 19.67,-1478 19.67,-1478 580.33,-1478 580.33,-1478 584.17,-1478 588,-1481.83 588,-1485.67 588,-1485.67 588,-1493.33 588,-1493.33 588,-1497.17 584.17,-1501 580.33,-1501"/>
<text text-anchor="middle" x="300" y="-1485.8" font-family="Arial" font-size="14.00" fill="#cfffac">laravel/vendor/phpunit/php&#45;code&#45;coverage/src/Report/Html/Renderer/Template/js/nv.d3.min.js</text>
</g>
<!-- laravel/vendor/phpunit/php&#45;code&#45;coverage/src/Report/Html/Renderer/Template/js/popper.min.js -->
<g id="node64" class="node">
<title>laravel/vendor/phpunit/php&#45;code&#45;coverage/src/Report/Html/Renderer/Template/js/popper.min.js</title>
<path fill="none" stroke="#cfffac" d="M584.83,-1542C584.83,-1542 15.17,-1542 15.17,-1542 11.33,-1542 7.5,-1538.17 7.5,-1534.33 7.5,-1534.33 7.5,-1526.67 7.5,-1526.67 7.5,-1522.83 11.33,-1519 15.17,-1519 15.17,-1519 584.83,-1519 584.83,-1519 588.67,-1519 592.5,-1522.83 592.5,-1526.67 592.5,-1526.67 592.5,-1534.33 592.5,-1534.33 592.5,-1538.17 588.67,-1542 584.83,-1542"/>
<text text-anchor="middle" x="300" y="-1526.8" font-family="Arial" font-size="14.00" fill="#cfffac">laravel/vendor/phpunit/php&#45;code&#45;coverage/src/Report/Html/Renderer/Template/js/popper.min.js</text>
</g>
<!-- laravel/vendor/spatie/ignition/resources/compiled/ignition.js -->
<g id="node65" class="node">
<title>laravel/vendor/spatie/ignition/resources/compiled/ignition.js</title>
<path fill="none" stroke="#cfffac" d="M476.83,-1583C476.83,-1583 123.17,-1583 123.17,-1583 119.33,-1583 115.5,-1579.17 115.5,-1575.33 115.5,-1575.33 115.5,-1567.67 115.5,-1567.67 115.5,-1563.83 119.33,-1560 123.17,-1560 123.17,-1560 476.83,-1560 476.83,-1560 480.67,-1560 484.5,-1563.83 484.5,-1567.67 484.5,-1567.67 484.5,-1575.33 484.5,-1575.33 484.5,-1579.17 480.67,-1583 476.83,-1583"/>
<text text-anchor="middle" x="300" y="-1567.8" font-family="Arial" font-size="14.00" fill="#cfffac">laravel/vendor/spatie/ignition/resources/compiled/ignition.js</text>
</g>
<!-- laravel/vendor/symfony/error&#45;handler/Resources/assets/js/exception.js -->
<g id="node66" class="node">
<title>laravel/vendor/symfony/error&#45;handler/Resources/assets/js/exception.js</title>
<path fill="none" stroke="#cfffac" d="M510.83,-1624C510.83,-1624 89.17,-1624 89.17,-1624 85.33,-1624 81.5,-1620.17 81.5,-1616.33 81.5,-1616.33 81.5,-1608.67 81.5,-1608.67 81.5,-1604.83 85.33,-1601 89.17,-1601 89.17,-1601 510.83,-1601 510.83,-1601 514.67,-1601 518.5,-1604.83 518.5,-1608.67 518.5,-1608.67 518.5,-1616.33 518.5,-1616.33 518.5,-1620.17 514.67,-1624 510.83,-1624"/>
<text text-anchor="middle" x="300" y="-1608.8" font-family="Arial" font-size="14.00" fill="#cfffac">laravel/vendor/symfony/error&#45;handler/Resources/assets/js/exception.js</text>
</g>
<!-- laravel/vendor/symfony/var&#45;dumper/Resources/js/htmlDescriptor.js -->
<g id="node67" class="node">
<title>laravel/vendor/symfony/var&#45;dumper/Resources/js/htmlDescriptor.js</title>
<path fill="none" stroke="#cfffac" d="M500.33,-1665C500.33,-1665 99.67,-1665 99.67,-1665 95.83,-1665 92,-1661.17 92,-1657.33 92,-1657.33 92,-1649.67 92,-1649.67 92,-1645.83 95.83,-1642 99.67,-1642 99.67,-1642 500.33,-1642 500.33,-1642 504.17,-1642 508,-1645.83 508,-1649.67 508,-1649.67 508,-1657.33 508,-1657.33 508,-1661.17 504.17,-1665 500.33,-1665"/>
<text text-anchor="middle" x="300" y="-1649.8" font-family="Arial" font-size="14.00" fill="#cfffac">laravel/vendor/symfony/var&#45;dumper/Resources/js/htmlDescriptor.js</text>
</g>
<!-- laravel/vite.config.js -->
<g id="node68" class="node">
<title>laravel/vite.config.js</title>
<path fill="none" stroke="#cfffac" d="M359.33,-1706C359.33,-1706 240.67,-1706 240.67,-1706 236.83,-1706 233,-1702.17 233,-1698.33 233,-1698.33 233,-1690.67 233,-1690.67 233,-1686.83 236.83,-1683 240.67,-1683 240.67,-1683 359.33,-1683 359.33,-1683 363.17,-1683 367,-1686.83 367,-1690.67 367,-1690.67 367,-1698.33 367,-1698.33 367,-1702.17 363.17,-1706 359.33,-1706"/>
<text text-anchor="middle" x="300" y="-1690.8" font-family="Arial" font-size="14.00" fill="#cfffac">laravel/vite.config.js</text>
</g>
</g>
</svg>
